<mxfile host="app.diagrams.net" modified="2023-10-15T17:52:18.138Z" agent="Mozilla/5.0 (Windows NT 10.0; Win64; x64) AppleWebKit/537.36 (KHTML, like Gecko) Chrome/116.0.5845.967 YaBrowser/23.9.1.967 Yowser/2.5 Safari/537.36" etag="5EVuZCySJZc0an8YWZRs" version="22.0.4" type="device">
  <diagram name="Страница — 1" id="dIbMGbSbDrTmaixLUYto">
    <mxGraphModel dx="1034" dy="711" grid="1" gridSize="10" guides="1" tooltips="1" connect="1" arrows="1" fold="1" page="1" pageScale="1" pageWidth="827" pageHeight="1169" math="0" shadow="0">
      <root>
        <mxCell id="0" />
        <mxCell id="1" parent="0" />
        <mxCell id="k3U__Hfp_pY9RrmfNyMo-18" value="" style="edgeStyle=orthogonalEdgeStyle;rounded=0;orthogonalLoop=1;jettySize=auto;html=1;" edge="1" parent="1" source="k3U__Hfp_pY9RrmfNyMo-3" target="k3U__Hfp_pY9RrmfNyMo-5">
          <mxGeometry relative="1" as="geometry" />
        </mxCell>
        <mxCell id="k3U__Hfp_pY9RrmfNyMo-3" value="начало" style="rounded=1;whiteSpace=wrap;html=1;arcSize=50;" vertex="1" parent="1">
          <mxGeometry x="160" y="100" width="120" height="60" as="geometry" />
        </mxCell>
        <mxCell id="k3U__Hfp_pY9RrmfNyMo-19" value="" style="edgeStyle=orthogonalEdgeStyle;rounded=0;orthogonalLoop=1;jettySize=auto;html=1;" edge="1" parent="1" source="k3U__Hfp_pY9RrmfNyMo-5" target="k3U__Hfp_pY9RrmfNyMo-6">
          <mxGeometry relative="1" as="geometry" />
        </mxCell>
        <mxCell id="k3U__Hfp_pY9RrmfNyMo-5" value="ввод:&lt;br&gt;x" style="shape=parallelogram;perimeter=parallelogramPerimeter;whiteSpace=wrap;html=1;fixedSize=1;" vertex="1" parent="1">
          <mxGeometry x="160" y="190" width="120" height="60" as="geometry" />
        </mxCell>
        <mxCell id="k3U__Hfp_pY9RrmfNyMo-20" value="" style="edgeStyle=orthogonalEdgeStyle;rounded=0;orthogonalLoop=1;jettySize=auto;html=1;" edge="1" parent="1" source="k3U__Hfp_pY9RrmfNyMo-6" target="k3U__Hfp_pY9RrmfNyMo-9">
          <mxGeometry relative="1" as="geometry" />
        </mxCell>
        <mxCell id="k3U__Hfp_pY9RrmfNyMo-21" value="" style="edgeStyle=orthogonalEdgeStyle;rounded=0;orthogonalLoop=1;jettySize=auto;html=1;" edge="1" parent="1" source="k3U__Hfp_pY9RrmfNyMo-6" target="k3U__Hfp_pY9RrmfNyMo-7">
          <mxGeometry relative="1" as="geometry" />
        </mxCell>
        <mxCell id="k3U__Hfp_pY9RrmfNyMo-6" value="x&amp;lt;-7" style="rhombus;whiteSpace=wrap;html=1;" vertex="1" parent="1">
          <mxGeometry x="160" y="280" width="120" height="80" as="geometry" />
        </mxCell>
        <mxCell id="k3U__Hfp_pY9RrmfNyMo-22" style="edgeStyle=orthogonalEdgeStyle;rounded=0;orthogonalLoop=1;jettySize=auto;html=1;exitX=0.5;exitY=1;exitDx=0;exitDy=0;" edge="1" parent="1" source="k3U__Hfp_pY9RrmfNyMo-7">
          <mxGeometry relative="1" as="geometry">
            <mxPoint x="220" y="380" as="targetPoint" />
            <Array as="points">
              <mxPoint x="390" y="380" />
              <mxPoint x="220" y="380" />
            </Array>
          </mxGeometry>
        </mxCell>
        <mxCell id="k3U__Hfp_pY9RrmfNyMo-7" value="y=x^(1/3)" style="rounded=0;whiteSpace=wrap;html=1;" vertex="1" parent="1">
          <mxGeometry x="330" y="290" width="120" height="60" as="geometry" />
        </mxCell>
        <mxCell id="k3U__Hfp_pY9RrmfNyMo-26" style="edgeStyle=orthogonalEdgeStyle;rounded=0;orthogonalLoop=1;jettySize=auto;html=1;exitX=0.5;exitY=1;exitDx=0;exitDy=0;" edge="1" parent="1" source="k3U__Hfp_pY9RrmfNyMo-8">
          <mxGeometry relative="1" as="geometry">
            <mxPoint x="220" y="500" as="targetPoint" />
            <Array as="points">
              <mxPoint x="390" y="500" />
              <mxPoint x="220" y="500" />
            </Array>
          </mxGeometry>
        </mxCell>
        <mxCell id="k3U__Hfp_pY9RrmfNyMo-8" value="y=tg(x)*x^2" style="rounded=0;whiteSpace=wrap;html=1;" vertex="1" parent="1">
          <mxGeometry x="330" y="410" width="120" height="60" as="geometry" />
        </mxCell>
        <mxCell id="k3U__Hfp_pY9RrmfNyMo-23" value="" style="edgeStyle=orthogonalEdgeStyle;rounded=0;orthogonalLoop=1;jettySize=auto;html=1;" edge="1" parent="1" source="k3U__Hfp_pY9RrmfNyMo-9" target="k3U__Hfp_pY9RrmfNyMo-8">
          <mxGeometry relative="1" as="geometry" />
        </mxCell>
        <mxCell id="k3U__Hfp_pY9RrmfNyMo-24" value="" style="edgeStyle=orthogonalEdgeStyle;rounded=0;orthogonalLoop=1;jettySize=auto;html=1;" edge="1" parent="1" source="k3U__Hfp_pY9RrmfNyMo-9" target="k3U__Hfp_pY9RrmfNyMo-10">
          <mxGeometry relative="1" as="geometry">
            <Array as="points">
              <mxPoint x="220" y="510" />
              <mxPoint x="220" y="510" />
            </Array>
          </mxGeometry>
        </mxCell>
        <mxCell id="k3U__Hfp_pY9RrmfNyMo-9" value="x&amp;gt;=-7&amp;nbsp;&lt;br&gt;и&lt;br&gt;x&amp;lt;1" style="rhombus;whiteSpace=wrap;html=1;" vertex="1" parent="1">
          <mxGeometry x="160" y="400" width="120" height="80" as="geometry" />
        </mxCell>
        <mxCell id="k3U__Hfp_pY9RrmfNyMo-27" value="" style="edgeStyle=orthogonalEdgeStyle;rounded=0;orthogonalLoop=1;jettySize=auto;html=1;" edge="1" parent="1" source="k3U__Hfp_pY9RrmfNyMo-10" target="k3U__Hfp_pY9RrmfNyMo-11">
          <mxGeometry relative="1" as="geometry" />
        </mxCell>
        <mxCell id="k3U__Hfp_pY9RrmfNyMo-30" value="" style="edgeStyle=orthogonalEdgeStyle;rounded=0;orthogonalLoop=1;jettySize=auto;html=1;" edge="1" parent="1" source="k3U__Hfp_pY9RrmfNyMo-10" target="k3U__Hfp_pY9RrmfNyMo-15">
          <mxGeometry relative="1" as="geometry" />
        </mxCell>
        <mxCell id="k3U__Hfp_pY9RrmfNyMo-10" value="x&amp;gt;=1" style="rhombus;whiteSpace=wrap;html=1;" vertex="1" parent="1">
          <mxGeometry x="160" y="520" width="120" height="80" as="geometry" />
        </mxCell>
        <mxCell id="k3U__Hfp_pY9RrmfNyMo-29" style="edgeStyle=orthogonalEdgeStyle;rounded=0;orthogonalLoop=1;jettySize=auto;html=1;exitX=0.5;exitY=1;exitDx=0;exitDy=0;" edge="1" parent="1" source="k3U__Hfp_pY9RrmfNyMo-11">
          <mxGeometry relative="1" as="geometry">
            <mxPoint x="220" y="620" as="targetPoint" />
            <Array as="points">
              <mxPoint x="390" y="620" />
              <mxPoint x="220" y="620" />
            </Array>
          </mxGeometry>
        </mxCell>
        <mxCell id="k3U__Hfp_pY9RrmfNyMo-11" value="y=-x*x^(1/3)-x^(0,1*x)" style="rounded=0;whiteSpace=wrap;html=1;" vertex="1" parent="1">
          <mxGeometry x="330" y="530" width="120" height="60" as="geometry" />
        </mxCell>
        <mxCell id="k3U__Hfp_pY9RrmfNyMo-33" value="" style="edgeStyle=orthogonalEdgeStyle;rounded=0;orthogonalLoop=1;jettySize=auto;html=1;" edge="1" parent="1" source="k3U__Hfp_pY9RrmfNyMo-12" target="k3U__Hfp_pY9RrmfNyMo-14">
          <mxGeometry relative="1" as="geometry" />
        </mxCell>
        <mxCell id="k3U__Hfp_pY9RrmfNyMo-34" value="" style="edgeStyle=orthogonalEdgeStyle;rounded=0;orthogonalLoop=1;jettySize=auto;html=1;" edge="1" parent="1" source="k3U__Hfp_pY9RrmfNyMo-12" target="k3U__Hfp_pY9RrmfNyMo-13">
          <mxGeometry relative="1" as="geometry" />
        </mxCell>
        <mxCell id="k3U__Hfp_pY9RrmfNyMo-12" value="y=y" style="rhombus;whiteSpace=wrap;html=1;" vertex="1" parent="1">
          <mxGeometry x="160" y="730" width="120" height="80" as="geometry" />
        </mxCell>
        <mxCell id="k3U__Hfp_pY9RrmfNyMo-36" value="" style="edgeStyle=orthogonalEdgeStyle;rounded=0;orthogonalLoop=1;jettySize=auto;html=1;" edge="1" parent="1" source="k3U__Hfp_pY9RrmfNyMo-13" target="k3U__Hfp_pY9RrmfNyMo-16">
          <mxGeometry relative="1" as="geometry" />
        </mxCell>
        <mxCell id="k3U__Hfp_pY9RrmfNyMo-13" value="вывод:&lt;br&gt;корней нет" style="shape=parallelogram;perimeter=parallelogramPerimeter;whiteSpace=wrap;html=1;fixedSize=1;" vertex="1" parent="1">
          <mxGeometry x="160" y="840" width="120" height="60" as="geometry" />
        </mxCell>
        <mxCell id="k3U__Hfp_pY9RrmfNyMo-39" style="edgeStyle=orthogonalEdgeStyle;rounded=0;orthogonalLoop=1;jettySize=auto;html=1;exitX=0.5;exitY=1;exitDx=0;exitDy=0;" edge="1" parent="1">
          <mxGeometry relative="1" as="geometry">
            <mxPoint x="220" y="930" as="targetPoint" />
            <mxPoint x="390" y="910" as="sourcePoint" />
            <Array as="points">
              <mxPoint x="390" y="930" />
              <mxPoint x="220" y="930" />
            </Array>
          </mxGeometry>
        </mxCell>
        <mxCell id="k3U__Hfp_pY9RrmfNyMo-14" value="вывод:&lt;br&gt;y" style="shape=parallelogram;perimeter=parallelogramPerimeter;whiteSpace=wrap;html=1;fixedSize=1;" vertex="1" parent="1">
          <mxGeometry x="330" y="840" width="120" height="60" as="geometry" />
        </mxCell>
        <mxCell id="k3U__Hfp_pY9RrmfNyMo-32" value="" style="edgeStyle=orthogonalEdgeStyle;rounded=0;orthogonalLoop=1;jettySize=auto;html=1;" edge="1" parent="1" source="k3U__Hfp_pY9RrmfNyMo-15" target="k3U__Hfp_pY9RrmfNyMo-12">
          <mxGeometry relative="1" as="geometry" />
        </mxCell>
        <mxCell id="k3U__Hfp_pY9RrmfNyMo-15" value="вывод:&lt;br&gt;x" style="shape=parallelogram;perimeter=parallelogramPerimeter;whiteSpace=wrap;html=1;fixedSize=1;" vertex="1" parent="1">
          <mxGeometry x="160" y="640" width="120" height="60" as="geometry" />
        </mxCell>
        <mxCell id="k3U__Hfp_pY9RrmfNyMo-16" value="конец" style="rounded=1;whiteSpace=wrap;html=1;arcSize=50;" vertex="1" parent="1">
          <mxGeometry x="160" y="950" width="120" height="60" as="geometry" />
        </mxCell>
        <mxCell id="k3U__Hfp_pY9RrmfNyMo-40" value="да" style="text;html=1;strokeColor=none;fillColor=none;align=center;verticalAlign=middle;whiteSpace=wrap;rounded=0;" vertex="1" parent="1">
          <mxGeometry x="260" y="290" width="60" height="30" as="geometry" />
        </mxCell>
        <mxCell id="k3U__Hfp_pY9RrmfNyMo-41" value="нет" style="text;html=1;strokeColor=none;fillColor=none;align=center;verticalAlign=middle;whiteSpace=wrap;rounded=0;" vertex="1" parent="1">
          <mxGeometry x="210" y="350" width="60" height="30" as="geometry" />
        </mxCell>
        <mxCell id="k3U__Hfp_pY9RrmfNyMo-42" value="да" style="text;html=1;strokeColor=none;fillColor=none;align=center;verticalAlign=middle;whiteSpace=wrap;rounded=0;" vertex="1" parent="1">
          <mxGeometry x="260" y="410" width="60" height="30" as="geometry" />
        </mxCell>
        <mxCell id="k3U__Hfp_pY9RrmfNyMo-43" value="да" style="text;html=1;strokeColor=none;fillColor=none;align=center;verticalAlign=middle;whiteSpace=wrap;rounded=0;" vertex="1" parent="1">
          <mxGeometry x="260" y="530" width="60" height="30" as="geometry" />
        </mxCell>
        <mxCell id="k3U__Hfp_pY9RrmfNyMo-44" value="нет" style="text;html=1;strokeColor=none;fillColor=none;align=center;verticalAlign=middle;whiteSpace=wrap;rounded=0;" vertex="1" parent="1">
          <mxGeometry x="210" y="470" width="60" height="30" as="geometry" />
        </mxCell>
        <mxCell id="k3U__Hfp_pY9RrmfNyMo-45" value="нет" style="text;html=1;strokeColor=none;fillColor=none;align=center;verticalAlign=middle;whiteSpace=wrap;rounded=0;" vertex="1" parent="1">
          <mxGeometry x="210" y="590" width="60" height="30" as="geometry" />
        </mxCell>
        <mxCell id="k3U__Hfp_pY9RrmfNyMo-46" value="да" style="text;html=1;strokeColor=none;fillColor=none;align=center;verticalAlign=middle;whiteSpace=wrap;rounded=0;" vertex="1" parent="1">
          <mxGeometry x="260" y="740" width="60" height="30" as="geometry" />
        </mxCell>
        <mxCell id="k3U__Hfp_pY9RrmfNyMo-47" value="нет" style="text;html=1;strokeColor=none;fillColor=none;align=center;verticalAlign=middle;whiteSpace=wrap;rounded=0;" vertex="1" parent="1">
          <mxGeometry x="210" y="800" width="60" height="30" as="geometry" />
        </mxCell>
      </root>
    </mxGraphModel>
  </diagram>
</mxfile>
